<svg viewBox="0 0 16 16" fill="none" xmlns="http://www.w3.org/2000/svg" id="Three-Stars--Streamline-Iconoir" height="16" width="16"><desc>Three Stars Streamline Icon: https://streamlinehq.com</desc><path d="m3.0899666666666663 9.610066666666667 0.6926733333333333 -1.4686666666666666c0.08892 -0.18853333333333333 0.3458 -0.18853333333333333 0.43472 0l0.6926733333333333 1.4686666666666666 1.5490266666666666 0.237c0.19874666666666665 0.0304 0.27793999999999996 0.28606666666666664 0.13407333333333332 0.43279999999999996l-1.1206666666666667 1.1423999999999999 0.26448 1.6139333333333332c0.03396 0.20726666666666665 -0.17390666666666665 0.3652666666666667 -0.35174 0.26739999999999997L4 12.5412l-1.3852066666666665 0.7624c-0.17783333333333332 0.09786666666666667 -0.38570666666666664 -0.06013333333333333 -0.35174 -0.26739999999999997l0.26448 -1.6139333333333332 -1.1206666666666667 -1.1423999999999999c-0.14388666666666666 -0.14673333333333333 -0.06467333333333333 -0.4024 0.13407333333333332 -0.43279999999999996l1.5490266666666666 -0.237Z" fill="#5b99cc" stroke="#5b99cc" stroke-width="1" stroke-linecap="round" stroke-linejoin="round"></path><path d="m11.089933333333331 9.610066666666667 0.6927333333333332 -1.4686666666666666c0.08886666666666666 -0.18853333333333333 0.3458 -0.18853333333333333 0.43466666666666665 0l0.6927333333333332 1.4686666666666666 1.549 0.237c0.19873333333333332 0.0304 0.2779333333333333 0.28606666666666664 0.13406666666666667 0.43279999999999996l-1.1206666666666667 1.1423999999999999 0.2644666666666666 1.6139333333333332c0.033999999999999996 0.20726666666666665 -0.17386666666666664 0.3652666666666667 -0.3517333333333333 0.26739999999999997L12 12.5412l-1.3851999999999998 0.7624c-0.17786666666666665 0.09786666666666667 -0.3857333333333333 -0.06013333333333333 -0.3517333333333333 -0.26739999999999997l0.2644666666666666 -1.6139333333333332 -1.1206666666666667 -1.1423999999999999c-0.14386666666666664 -0.14673333333333333 -0.06466666666666666 -0.4024 0.13406666666666667 -0.43279999999999996l1.549 -0.237Z" fill="#5b99cc" stroke="#5b99cc" stroke-width="1" stroke-linecap="round" stroke-linejoin="round"></path><path d="m7.089933333333333 3.6100999999999996 0.6927333333333332 -1.4686933333333334c0.08886666666666666 -0.18853999999999999 0.3458 -0.18853999999999999 0.43466666666666665 0l0.6927333333333332 1.4686933333333334 1.549 0.23696666666666666c0.19873333333333332 0.0304 0.2779333333333333 0.2860933333333333 0.13406666666666667 0.4327733333333333l-1.1206666666666667 1.1424066666666666 0.2644666666666666 1.6139533333333331c0.033999999999999996 0.20726666666666665 -0.17386666666666664 0.3652666666666667 -0.3517333333333333 0.26739999999999997L8 6.5411866666666665 6.614793333333333 7.303599999999999c-0.17783333333333332 0.09786666666666667 -0.38570666666666664 -0.06013333333333333 -0.35174 -0.26739999999999997l0.26448 -1.6139533333333331 -1.1206666666666667 -1.1424066666666666c-0.14388666666666666 -0.14667999999999998 -0.06467333333333333 -0.4023733333333333 0.13407333333333332 -0.4327733333333333l1.5489933333333332 -0.23696666666666666Z" fill="#5b99cc" stroke="#5b99cc" stroke-width="1" stroke-linecap="round" stroke-linejoin="round"></path></svg>