<svg xmlns="http://www.w3.org/2000/svg" xmlns:xlink="http://www.w3.org/1999/xlink" width="45" zoomAndPan="magnify" viewBox="0 0 33.75 33.749998" height="45" preserveAspectRatio="xMidYMid meet" version="1.0"><defs><clipPath id="1884707baa"><path d="M 0 0 L 33.5 0 L 33.5 33.5 L 0 33.5 Z M 0 0 " clip-rule="nonzero"/></clipPath></defs><g clip-path="url(#1884707baa)"><path fill="#5b99cc" d="M 32.777344 10.554688 L 31.464844 10.554688 L 31.464844 8.585938 L 32.777344 8.585938 C 33.136719 8.585938 33.433594 8.292969 33.433594 7.929688 C 33.433594 7.570312 33.136719 7.273438 32.777344 7.273438 L 24.769531 7.273438 L 17.5 0.25 C 17.25 0.0078125 16.859375 0.00390625 16.601562 0.234375 L 8.878906 7.273438 L 0.65625 7.273438 C 0.292969 7.273438 0 7.570312 0 7.929688 C 0 8.292969 0.292969 8.585938 0.65625 8.585938 L 1.964844 8.585938 L 1.964844 10.554688 L 0.65625 10.554688 C 0.292969 10.554688 0 10.847656 0 11.207031 L 0 13.832031 C 0 14.191406 0.292969 14.484375 0.65625 14.484375 L 1.3125 14.484375 C 1.3125 15.503906 1.3125 23.050781 1.3125 24.320312 L 0.65625 24.320312 C 0.292969 24.320312 0 24.613281 0 24.972656 L 0 32.839844 C 0 33.203125 0.292969 33.496094 0.65625 33.496094 C 0.941406 33.496094 32.296875 33.496094 32.777344 33.496094 C 33.136719 33.496094 33.433594 33.203125 33.433594 32.839844 L 33.433594 24.972656 C 33.433594 24.613281 33.136719 24.320312 32.777344 24.320312 L 32.121094 24.320312 C 32.121094 23.0625 32.121094 15.496094 32.121094 14.484375 L 32.777344 14.484375 C 33.136719 14.484375 33.433594 14.191406 33.433594 13.832031 L 33.433594 11.207031 C 33.433594 10.847656 33.136719 10.554688 32.777344 10.554688 Z M 30.15625 8.585938 L 30.15625 10.554688 L 28.160156 10.554688 L 26.125 8.585938 Z M 24.910156 29.5625 L 8.523438 29.5625 L 8.523438 28.253906 C 10.523438 28.253906 23.128906 28.253906 24.910156 28.253906 Z M 23.234375 17.109375 L 10.199219 17.109375 L 10.199219 11.507812 L 17.023438 5.542969 L 23.234375 11.488281 Z M 14.421875 24.972656 L 15.078125 24.972656 C 15.4375 24.972656 15.734375 24.679688 15.734375 24.320312 C 15.734375 23.957031 15.4375 23.664062 15.078125 23.664062 L 14.421875 23.664062 L 14.421875 21.042969 L 19.011719 21.042969 L 19.011719 26.941406 L 14.421875 26.941406 Z M 20.320312 26.941406 L 20.320312 20.386719 C 20.320312 20.023438 20.027344 19.730469 19.664062 19.730469 L 13.765625 19.730469 C 13.402344 19.730469 13.109375 20.023438 13.109375 20.386719 L 13.109375 26.941406 L 10.199219 26.941406 L 10.199219 18.417969 L 23.234375 18.417969 L 23.234375 26.941406 Z M 3.277344 8.585938 L 7.4375 8.585938 L 5.28125 10.554688 L 3.277344 10.554688 Z M 1.3125 11.863281 C 2.894531 11.863281 7.277344 11.863281 8.886719 11.863281 L 8.886719 13.175781 L 1.3125 13.175781 Z M 8.886719 14.484375 L 8.886719 15.796875 L 2.621094 15.796875 L 2.621094 14.484375 Z M 2.621094 23.007812 L 5.898438 23.007812 C 6.261719 23.007812 6.554688 22.714844 6.554688 22.351562 L 6.554688 19.074219 C 6.554688 18.710938 6.261719 18.417969 5.898438 18.417969 L 2.621094 18.417969 L 2.621094 17.109375 L 8.886719 17.109375 L 8.886719 24.320312 L 2.621094 24.320312 Z M 1.3125 25.628906 L 8.886719 25.628906 L 8.886719 26.941406 L 7.867188 26.941406 C 7.503906 26.941406 7.210938 27.234375 7.210938 27.597656 L 7.210938 29.5625 L 6.554688 29.5625 C 6.191406 29.5625 5.898438 29.855469 5.898438 30.21875 L 5.898438 32.183594 L 1.3125 32.183594 Z M 32.121094 32.183594 L 27.53125 32.183594 L 27.53125 30.21875 C 27.53125 29.855469 27.238281 29.5625 26.875 29.5625 L 26.222656 29.5625 L 26.222656 27.597656 C 26.222656 27.234375 25.925781 26.941406 25.566406 26.941406 L 24.546875 26.941406 L 24.546875 25.628906 L 32.121094 25.628906 Z M 24.546875 24.320312 L 24.546875 17.109375 L 30.808594 17.109375 L 30.808594 18.417969 L 27.53125 18.417969 C 27.171875 18.417969 26.875 18.710938 26.875 19.074219 L 26.875 22.351562 C 26.875 22.714844 27.171875 23.007812 27.53125 23.007812 L 30.808594 23.007812 L 30.808594 24.320312 Z M 30.808594 15.796875 L 24.546875 15.796875 L 24.546875 14.484375 L 30.808594 14.484375 Z M 32.121094 13.175781 L 24.546875 13.175781 L 24.546875 11.863281 C 26.136719 11.863281 30.53125 11.863281 32.121094 11.863281 Z M 32.121094 13.175781 " fill-opacity="1" fill-rule="nonzero"/></g><path fill="#5b99cc" d="M 14.09375 10.554688 C 13.730469 10.554688 13.4375 10.847656 13.4375 11.207031 L 13.4375 14.484375 C 13.078125 14.484375 12.78125 14.78125 12.78125 15.140625 C 12.78125 15.503906 13.078125 15.796875 13.4375 15.796875 C 14.851562 15.796875 18.578125 15.796875 19.992188 15.796875 C 20.355469 15.796875 20.648438 15.503906 20.648438 15.140625 C 20.648438 14.78125 20.355469 14.484375 19.992188 14.484375 L 19.992188 11.207031 C 19.992188 10.847656 19.699219 10.554688 19.339844 10.554688 C 18.703125 10.554688 14.734375 10.554688 14.09375 10.554688 Z M 14.75 11.863281 L 16.058594 11.863281 L 16.058594 14.484375 L 14.75 14.484375 Z M 18.683594 14.484375 L 17.371094 14.484375 L 17.371094 11.863281 L 18.683594 11.863281 Z M 18.683594 14.484375 " fill-opacity="1" fill-rule="nonzero"/></svg>