<svg xmlns="http://www.w3.org/2000/svg" xmlns:xlink="http://www.w3.org/1999/xlink" width="45" zoomAndPan="magnify" viewBox="0 0 33.75 33.749998" height="45" preserveAspectRatio="xMidYMid meet" version="1.0"><defs><clipPath id="29178401f2"><path d="M 0.796875 0 L 32.808594 0 L 32.808594 33.5 L 0.796875 33.5 Z M 0.796875 0 " clip-rule="nonzero"/></clipPath></defs><g clip-path="url(#29178401f2)"><path fill="#5b99cc" d="M 27.207031 10.984375 C 26.835938 10.421875 26.359375 10.019531 25.820312 9.851562 C 25.574219 9.773438 25.574219 9.417969 25.820312 9.339844 C 27.070312 8.945312 27.796875 7.414062 27.933594 6.078125 C 27.964844 5.757812 28.429688 5.757812 28.464844 6.074219 C 28.609375 7.421875 29.320312 8.941406 30.574219 9.339844 C 30.820312 9.417969 30.824219 9.769531 30.574219 9.851562 C 29.328125 10.246094 28.597656 11.777344 28.464844 13.113281 C 28.433594 13.433594 27.96875 13.433594 27.933594 13.117188 C 27.84375 12.296875 27.582031 11.558594 27.207031 10.984375 Z M 13.832031 20.8125 L 24.640625 20.8125 C 24.675781 20.8125 24.707031 20.78125 24.707031 20.746094 L 24.707031 12.699219 C 24.707031 12.671875 24.695312 12.652344 24.671875 12.640625 L 16.929688 8.140625 C 16.90625 8.128906 16.882812 8.128906 16.863281 8.140625 L 9.121094 12.640625 C 9.097656 12.652344 9.085938 12.671875 9.085938 12.699219 L 9.085938 19.757812 C 9.085938 19.792969 9.117188 19.824219 9.152344 19.824219 L 13.335938 19.824219 C 13.644531 19.824219 13.882812 20.109375 13.824219 20.417969 L 13.765625 20.734375 C 13.757812 20.777344 13.789062 20.8125 13.832031 20.8125 Z M 13.773438 16.472656 C 13.773438 16.0625 14.109375 15.734375 14.515625 15.734375 L 15.480469 15.734375 C 15.886719 15.734375 16.21875 16.0625 16.21875 16.472656 L 16.21875 17.4375 C 16.21875 17.84375 15.886719 18.175781 15.480469 18.175781 L 14.515625 18.175781 C 14.105469 18.175781 13.773438 17.84375 13.773438 17.4375 Z M 17.792969 14.230469 C 17.65625 14.097656 17.574219 13.910156 17.574219 13.707031 L 17.574219 12.742188 C 17.574219 12.335938 17.90625 12.003906 18.3125 12.003906 L 19.277344 12.003906 C 19.480469 12.003906 19.664062 12.085938 19.800781 12.222656 C 19.933594 12.355469 20.015625 12.539062 20.015625 12.742188 L 20.015625 13.707031 C 20.015625 14.113281 19.683594 14.445312 19.277344 14.445312 L 18.3125 14.445312 C 18.109375 14.445312 17.925781 14.363281 17.792969 14.230469 Z M 17.792969 15.949219 C 17.925781 15.816406 18.109375 15.734375 18.3125 15.734375 L 19.277344 15.734375 C 19.480469 15.734375 19.664062 15.816406 19.800781 15.949219 C 19.933594 16.082031 20.015625 16.265625 20.015625 16.472656 L 20.015625 17.4375 C 20.015625 17.84375 19.683594 18.175781 19.277344 18.175781 L 18.3125 18.175781 C 17.90625 18.175781 17.574219 17.84375 17.574219 17.4375 L 17.574219 16.472656 C 17.574219 16.265625 17.65625 16.082031 17.792969 15.949219 Z M 15.480469 14.445312 L 14.511719 14.445312 C 14.105469 14.445312 13.773438 14.113281 13.773438 13.707031 L 13.773438 12.742188 C 13.773438 12.335938 14.109375 12.003906 14.511719 12.003906 L 15.480469 12.003906 C 15.886719 12.003906 16.21875 12.335938 16.21875 12.742188 L 16.21875 13.707031 C 16.21875 13.910156 16.132812 14.09375 16 14.230469 C 15.867188 14.363281 15.683594 14.445312 15.480469 14.445312 Z M 13.457031 22.792969 L 27.769531 22.789062 C 27.804688 22.789062 27.835938 22.761719 27.835938 22.722656 L 27.832031 21.882812 C 27.832031 21.84375 27.804688 21.8125 27.765625 21.8125 L 13.617188 21.8125 C 13.585938 21.8125 13.558594 21.835938 13.550781 21.867188 L 13.390625 22.710938 C 13.382812 22.753906 13.414062 22.792969 13.457031 22.792969 Z M 5.6875 20.859375 C 5.699219 20.835938 5.71875 20.824219 5.746094 20.824219 L 12.652344 20.824219 C 12.691406 20.824219 12.726562 20.863281 12.71875 20.902344 L 12.183594 23.726562 C 12.179688 23.757812 12.152344 23.78125 12.117188 23.78125 L 11.042969 23.78125 C 11.019531 23.78125 11 23.789062 10.988281 23.808594 L 8.832031 26.613281 C 8.367188 27.21875 7.691406 27.546875 6.929688 27.546875 L 4.824219 27.546875 C 4.800781 27.546875 4.777344 27.5625 4.765625 27.582031 L 4.476562 28.085938 C 4.21875 28.53125 4.183594 29.03125 4.378906 29.507812 L 4.589844 30.019531 C 4.605469 30.066406 4.574219 30.113281 4.527344 30.113281 L 3.355469 30.113281 C 3.320312 30.113281 3.289062 30.140625 3.289062 30.179688 C 3.261719 31.59375 4.214844 32.484375 5.675781 32.4375 C 10.03125 32.292969 11.359375 25.324219 16.976562 25.335938 C 21.226562 25.339844 23.300781 27.914062 24.183594 31.691406 C 24.246094 31.960938 24.078125 32.230469 23.808594 32.292969 C 23.539062 32.355469 23.273438 32.1875 23.207031 31.917969 C 22.429688 28.578125 20.726562 26.335938 16.976562 26.332031 C 11.929688 26.324219 10.675781 33.269531 5.707031 33.433594 C 3.667969 33.5 2.269531 32.160156 2.289062 30.179688 C 2.292969 30.144531 2.261719 30.113281 2.222656 30.113281 L 1.46875 30.113281 C 1.433594 30.113281 1.402344 30.082031 1.402344 30.042969 L 1.445312 28.355469 C 1.449219 28.25 1.476562 28.152344 1.527344 28.0625 Z M 5.421875 26.445312 C 5.394531 26.492188 5.425781 26.546875 5.476562 26.546875 L 6.929688 26.546875 C 7.386719 26.546875 7.765625 26.363281 8.042969 26 L 9.667969 23.886719 C 9.699219 23.84375 9.667969 23.78125 9.613281 23.78125 L 7.246094 23.78125 C 7.074219 23.78125 6.90625 23.871094 6.816406 24.03125 Z M 29.632812 22.804688 C 29.355469 22.804688 29.132812 22.578125 29.132812 22.304688 C 29.132812 22.027344 29.355469 21.800781 29.632812 21.800781 L 32.175781 21.800781 C 32.453125 21.800781 32.679688 22.027344 32.679688 22.304688 C 32.679688 22.578125 32.453125 22.804688 32.175781 22.804688 Z M 29.449219 24.375 C 29.191406 24.273438 29.066406 23.984375 29.167969 23.726562 C 29.265625 23.46875 29.558594 23.34375 29.8125 23.441406 L 32.257812 24.402344 C 32.515625 24.503906 32.640625 24.792969 32.539062 25.050781 C 32.441406 25.308594 32.152344 25.433594 31.894531 25.332031 Z M 29.8125 21.164062 C 29.558594 21.261719 29.265625 21.136719 29.167969 20.878906 C 29.066406 20.621094 29.191406 20.332031 29.449219 20.230469 L 31.894531 19.273438 C 32.152344 19.171875 32.441406 19.300781 32.539062 19.554688 C 32.640625 19.8125 32.515625 20.101562 32.257812 20.203125 Z M 2.453125 14.273438 C 2.085938 13.710938 1.605469 13.308594 1.070312 13.136719 C 0.824219 13.058594 0.820312 12.707031 1.070312 12.628906 C 2.320312 12.234375 3.046875 10.699219 3.179688 9.363281 C 3.214844 9.046875 3.675781 9.046875 3.710938 9.363281 C 3.855469 10.707031 4.566406 12.230469 5.824219 12.628906 C 6.070312 12.707031 6.070312 13.058594 5.824219 13.136719 C 4.574219 13.53125 3.847656 15.066406 3.710938 16.402344 C 3.679688 16.722656 3.214844 16.722656 3.183594 16.40625 C 3.09375 15.585938 2.832031 14.847656 2.453125 14.273438 Z M 8.914062 5.230469 C 8.542969 4.667969 8.066406 4.265625 7.53125 4.09375 C 7.28125 4.015625 7.28125 3.664062 7.53125 3.585938 C 8.777344 3.191406 9.503906 1.65625 9.640625 0.320312 C 9.671875 0.00390625 10.136719 0.00390625 10.171875 0.316406 C 10.316406 1.664062 11.027344 3.1875 12.28125 3.585938 C 12.53125 3.664062 12.53125 4.015625 12.28125 4.09375 C 11.035156 4.488281 10.308594 6.023438 10.171875 7.359375 C 10.140625 7.679688 9.675781 7.679688 9.640625 7.363281 C 9.550781 6.542969 9.292969 5.804688 8.914062 5.230469 Z M 8.914062 5.230469 " fill-opacity="1" fill-rule="evenodd"/></g></svg>