<svg xmlns="http://www.w3.org/2000/svg" xmlns:xlink="http://www.w3.org/1999/xlink" width="45" zoomAndPan="magnify" viewBox="0 0 33.75 33.749998" height="45" preserveAspectRatio="xMidYMid meet" version="1.0"><defs><clipPath id="81463f84d9"><path d="M 9 23 L 23 23 L 23 33.5 L 9 33.5 Z M 9 23 " clip-rule="nonzero"/></clipPath><clipPath id="fd6a744e2e"><path d="M 21 20 L 32.757812 20 L 32.757812 31 L 21 31 Z M 21 20 " clip-rule="nonzero"/></clipPath></defs><g clip-path="url(#81463f84d9)"><path fill="#5b99cc" d="M 22.546875 25.863281 C 22.289062 24.480469 21.082031 23.480469 19.675781 23.480469 L 19.570312 23.480469 C 19.09375 23.480469 18.613281 23.601562 18.136719 23.84375 C 16.996094 24.425781 15.550781 24.425781 14.40625 23.84375 C 13.933594 23.601562 13.449219 23.480469 12.972656 23.480469 L 12.867188 23.480469 C 11.5 23.480469 10.332031 24.410156 10.023438 25.738281 C 9.984375 25.914062 9.75 28.441406 9.558594 30.527344 C 9.472656 31.433594 10 32.28125 10.835938 32.59375 C 12.382812 33.167969 14.226562 33.472656 16.171875 33.472656 C 18.210938 33.472656 20.125 33.140625 21.703125 32.515625 C 22.535156 32.183594 23.058594 31.335938 22.976562 30.453125 C 22.796875 28.433594 22.574219 25.996094 22.546875 25.863281 Z M 22.546875 25.863281 " fill-opacity="1" fill-rule="nonzero"/></g><path fill="#5b99cc" d="M 16.269531 22.871094 C 18.84375 22.871094 20.941406 20.777344 20.941406 18.199219 C 20.941406 18.058594 20.9375 17.917969 20.925781 17.78125 C 20.707031 15.355469 18.703125 13.527344 16.269531 13.527344 C 16.117188 13.527344 15.96875 13.535156 15.816406 13.550781 C 14.113281 13.71875 12.660156 14.816406 11.992188 16.332031 L 11.910156 16.332031 C 11.910156 16.414062 11.894531 16.496094 11.890625 16.578125 C 11.742188 16.972656 11.648438 17.394531 11.613281 17.828125 C 11.613281 17.832031 11.613281 17.832031 11.613281 17.835938 C 11.613281 17.835938 11.613281 17.839844 11.613281 17.839844 C 11.601562 17.957031 11.597656 18.074219 11.597656 18.199219 C 11.59375 20.777344 13.691406 22.871094 16.269531 22.871094 Z M 16.269531 22.871094 " fill-opacity="1" fill-rule="nonzero"/><g clip-path="url(#fd6a744e2e)"><path fill="#5b99cc" d="M 32.460938 27.363281 C 32.214844 24.628906 32.078125 23.1875 32.0625 23.089844 C 31.8125 21.785156 30.671875 20.839844 29.351562 20.839844 L 29.246094 20.839844 C 28.800781 20.839844 28.347656 20.957031 27.898438 21.183594 C 26.839844 21.722656 25.519531 21.722656 24.464844 21.183594 C 24.019531 20.957031 23.566406 20.839844 23.117188 20.839844 L 23.011719 20.839844 C 22.613281 20.839844 22.214844 20.925781 21.859375 21.089844 C 21.761719 21.136719 21.679688 21.207031 21.625 21.300781 C 21.503906 21.507812 21.402344 21.664062 21.300781 21.796875 C 21.207031 21.921875 21.171875 22.082031 21.207031 22.234375 C 21.246094 22.386719 21.347656 22.519531 21.492188 22.585938 C 22.707031 23.164062 23.582031 24.296875 23.832031 25.625 C 23.859375 25.734375 23.898438 26.101562 24.214844 29.671875 C 24.238281 29.925781 24.441406 30.125 24.695312 30.148438 C 25.164062 30.1875 25.632812 30.207031 26.085938 30.207031 C 27.96875 30.207031 29.804688 29.890625 31.253906 29.3125 C 32.042969 29.003906 32.539062 28.203125 32.460938 27.363281 Z M 32.460938 27.363281 " fill-opacity="1" fill-rule="nonzero"/></g><path fill="#5b99cc" d="M 11.035156 22.585938 C 11.175781 22.519531 11.28125 22.394531 11.320312 22.242188 C 11.359375 22.09375 11.328125 21.929688 11.234375 21.804688 C 11.117188 21.644531 11.011719 21.476562 10.910156 21.304688 C 10.855469 21.210938 10.777344 21.140625 10.679688 21.09375 C 10.316406 20.925781 9.929688 20.839844 9.527344 20.839844 L 9.429688 20.839844 C 8.980469 20.839844 8.527344 20.957031 8.078125 21.183594 C 7.023438 21.722656 5.703125 21.722656 4.644531 21.183594 C 4.195312 20.957031 3.742188 20.839844 3.292969 20.839844 L 3.195312 20.839844 C 1.902344 20.839844 0.800781 21.71875 0.511719 22.980469 C 0.476562 23.140625 0.253906 25.492188 0.078125 27.433594 C -0.00390625 28.292969 0.496094 29.09375 1.289062 29.386719 C 2.722656 29.925781 4.441406 30.210938 6.265625 30.210938 C 6.789062 30.210938 7.320312 30.183594 7.851562 30.132812 C 8.101562 30.109375 8.300781 29.910156 8.324219 29.660156 C 8.6875 25.726562 8.71875 25.582031 8.75 25.429688 C 9.042969 24.171875 9.875 23.136719 11.035156 22.585938 Z M 11.035156 22.585938 " fill-opacity="1" fill-rule="nonzero"/><path fill="#5b99cc" d="M 16.269531 8.792969 C 18.683594 8.792969 20.648438 6.824219 20.648438 4.410156 C 20.648438 1.996094 18.683594 0.0273438 16.269531 0.0273438 C 13.851562 0.0273438 11.886719 1.996094 11.886719 4.410156 C 11.886719 6.824219 13.851562 8.792969 16.269531 8.792969 Z M 16.269531 8.792969 " fill-opacity="1" fill-rule="nonzero"/><path fill="#5b99cc" d="M 6.355469 20.714844 C 8.84375 20.714844 10.867188 18.691406 10.867188 16.203125 C 10.867188 13.710938 8.84375 11.6875 6.355469 11.6875 C 3.863281 11.6875 1.84375 13.710938 1.84375 16.203125 C 1.84375 18.691406 3.867188 20.714844 6.355469 20.714844 Z M 6.355469 20.714844 " fill-opacity="1" fill-rule="nonzero"/><path fill="#5b99cc" d="M 11.429688 13.628906 L 11.738281 14.238281 L 12.246094 13.777344 C 12.984375 13.109375 13.875 12.632812 14.824219 12.398438 C 15.683594 12.183594 16.605469 12.167969 17.4375 12.335938 C 18.449219 12.535156 19.402344 13.011719 20.191406 13.699219 L 20.714844 14.160156 L 21.011719 13.53125 C 21.257812 12.996094 21.585938 12.507812 21.976562 12.078125 L 22.171875 11.863281 L 22.09375 11.582031 C 21.746094 10.386719 20.679688 9.582031 19.4375 9.582031 L 19.335938 9.582031 C 18.890625 9.582031 18.425781 9.703125 17.988281 9.925781 C 16.921875 10.46875 15.617188 10.464844 14.554688 9.925781 C 14.117188 9.699219 13.648438 9.578125 13.203125 9.578125 L 13.101562 9.578125 C 11.816406 9.578125 10.710938 10.453125 10.433594 11.664062 C 10.410156 11.726562 10.40625 11.777344 10.394531 11.867188 L 10.359375 12.164062 L 10.523438 12.339844 C 10.886719 12.730469 11.1875 13.164062 11.429688 13.628906 Z M 11.429688 13.628906 " fill-opacity="1" fill-rule="nonzero"/><path fill="#5b99cc" d="M 26.179688 20.421875 C 28.667969 20.421875 30.691406 18.398438 30.691406 15.910156 C 30.691406 13.421875 28.667969 11.398438 26.179688 11.398438 C 23.691406 11.398438 21.667969 13.421875 21.667969 15.910156 C 21.667969 18.398438 23.691406 20.421875 26.179688 20.421875 Z M 26.179688 20.421875 " fill-opacity="1" fill-rule="nonzero"/></svg>