<svg xmlns="http://www.w3.org/2000/svg" xmlns:xlink="http://www.w3.org/1999/xlink" width="45" zoomAndPan="magnify" viewBox="0 0 33.75 33.749998" height="45" preserveAspectRatio="xMidYMid meet" version="1.0"><defs><clipPath id="a532c215df"><path d="M 0 0 L 33.5 0 L 33.5 33.5 L 0 33.5 Z M 0 0 " clip-rule="nonzero"/></clipPath></defs><path fill="#5b99cc" d="M 7.070312 22.363281 L 7.070312 27.851562 C 7.070312 27.984375 7.117188 28.101562 7.214844 28.199219 C 7.3125 28.292969 7.425781 28.34375 7.5625 28.34375 L 17.128906 28.34375 C 17.261719 28.34375 17.378906 28.292969 17.476562 28.199219 C 17.570312 28.101562 17.621094 27.984375 17.621094 27.851562 L 17.621094 22.363281 C 17.621094 22.230469 17.570312 22.113281 17.476562 22.015625 C 17.378906 21.921875 17.261719 21.871094 17.128906 21.871094 L 7.5625 21.871094 C 7.425781 21.871094 7.3125 21.921875 7.214844 22.015625 C 7.117188 22.113281 7.070312 22.230469 7.070312 22.363281 Z M 8.054688 22.855469 L 16.632812 22.855469 L 16.632812 27.359375 L 8.054688 27.359375 Z M 8.054688 22.855469 " fill-opacity="1" fill-rule="nonzero"/><path fill="#5b99cc" d="M 8.96875 9.457031 C 8.832031 9.457031 8.71875 9.503906 8.621094 9.601562 C 8.523438 9.695312 8.476562 9.8125 8.476562 9.949219 C 8.476562 10.085938 8.523438 10.199219 8.621094 10.296875 C 8.71875 10.394531 8.832031 10.441406 8.96875 10.441406 L 15.71875 10.441406 C 15.855469 10.441406 15.972656 10.394531 16.070312 10.296875 C 16.164062 10.199219 16.210938 10.085938 16.210938 9.949219 C 16.210938 9.8125 16.164062 9.695312 16.070312 9.601562 C 15.972656 9.503906 15.855469 9.457031 15.71875 9.457031 Z M 8.96875 9.457031 " fill-opacity="1" fill-rule="nonzero"/><path fill="#5b99cc" d="M 8.96875 12.644531 L 15.71875 12.644531 C 15.855469 12.644531 15.972656 12.597656 16.070312 12.5 C 16.164062 12.402344 16.210938 12.289062 16.210938 12.152344 C 16.210938 12.015625 16.164062 11.898438 16.070312 11.804688 C 15.972656 11.707031 15.855469 11.660156 15.71875 11.660156 L 8.96875 11.660156 C 8.832031 11.660156 8.71875 11.707031 8.621094 11.804688 C 8.523438 11.898438 8.476562 12.015625 8.476562 12.152344 C 8.476562 12.289062 8.523438 12.402344 8.621094 12.5 C 8.71875 12.597656 8.832031 12.644531 8.96875 12.644531 Z M 8.96875 12.644531 " fill-opacity="1" fill-rule="nonzero"/><path fill="#5b99cc" d="M 8.96875 14.847656 L 15.71875 14.847656 C 15.855469 14.847656 15.972656 14.800781 16.070312 14.703125 C 16.164062 14.605469 16.214844 14.492188 16.214844 14.355469 C 16.214844 14.21875 16.164062 14.101562 16.070312 14.007812 C 15.972656 13.910156 15.855469 13.863281 15.71875 13.863281 L 8.96875 13.863281 C 8.832031 13.863281 8.71875 13.910156 8.621094 14.007812 C 8.527344 14.101562 8.476562 14.21875 8.476562 14.355469 C 8.476562 14.492188 8.527344 14.605469 8.621094 14.703125 C 8.71875 14.800781 8.832031 14.847656 8.96875 14.847656 Z M 8.96875 14.847656 " fill-opacity="1" fill-rule="nonzero"/><g clip-path="url(#a532c215df)"><path fill="#5b99cc" d="M 33.21875 5.417969 C 33.078125 5.320312 32.925781 5.304688 32.765625 5.363281 L 30.359375 6.28125 L 29.28125 6.28125 C 28.628906 4.652344 26.96875 2.152344 22.835938 1.367188 C 20.441406 0.902344 18.078125 1.011719 15.738281 1.699219 L 15.738281 0.476562 C 15.738281 0.34375 15.691406 0.226562 15.59375 0.128906 C 15.496094 0.0351562 15.382812 -0.015625 15.246094 -0.015625 L 9.445312 -0.015625 C 9.308594 -0.015625 9.191406 0.0351562 9.097656 0.128906 C 9 0.226562 8.953125 0.34375 8.953125 0.476562 L 8.953125 4.960938 L 8.164062 4.960938 C 7.667969 4.960938 7.191406 5.054688 6.730469 5.238281 C 6.269531 5.421875 5.859375 5.683594 5.5 6.023438 C 5.140625 6.367188 4.855469 6.761719 4.648438 7.214844 C 4.441406 7.664062 4.324219 8.136719 4.300781 8.632812 L 3.527344 23.71875 C 3.195312 23.484375 2.828125 23.355469 2.421875 23.328125 C 2.015625 23.300781 1.632812 23.378906 1.269531 23.566406 C 0.910156 23.753906 0.625 24.023438 0.414062 24.371094 C 0.203125 24.71875 0.0976562 25.097656 0.0976562 25.503906 L 0.0976562 31.140625 C 0.0976562 31.578125 0.21875 31.980469 0.464844 32.347656 C 0.707031 32.714844 1.03125 32.980469 1.4375 33.152344 C 1.84375 33.320312 2.261719 33.363281 2.691406 33.277344 C 3.125 33.195312 3.496094 33 3.808594 32.691406 C 4.230469 33.105469 4.738281 33.316406 5.332031 33.320312 L 19.359375 33.320312 C 19.953125 33.316406 20.460938 33.105469 20.882812 32.691406 C 21.195312 33 21.566406 33.195312 21.996094 33.277344 C 22.429688 33.363281 22.847656 33.320312 23.253906 33.152344 C 23.660156 32.980469 23.984375 32.714844 24.226562 32.347656 C 24.46875 31.980469 24.589844 31.578125 24.589844 31.140625 L 24.589844 25.503906 C 24.59375 25.097656 24.488281 24.71875 24.277344 24.371094 C 24.066406 24.023438 23.777344 23.753906 23.417969 23.566406 C 23.058594 23.378906 22.675781 23.300781 22.269531 23.328125 C 21.863281 23.355469 21.492188 23.484375 21.160156 23.71875 L 20.390625 8.632812 C 20.363281 8.136719 20.25 7.664062 20.042969 7.214844 C 19.835938 6.761719 19.550781 6.367188 19.191406 6.027344 C 18.832031 5.683594 18.421875 5.421875 17.960938 5.238281 C 17.5 5.054688 17.023438 4.960938 16.527344 4.960938 L 15.738281 4.960938 L 15.738281 2.742188 C 18.007812 2.019531 20.3125 1.886719 22.652344 2.335938 C 26.03125 2.976562 27.539062 4.875 28.207031 6.28125 L 27.917969 6.28125 C 27.78125 6.28125 27.667969 6.332031 27.570312 6.425781 C 27.476562 6.523438 27.425781 6.636719 27.425781 6.773438 L 27.425781 12.433594 C 27.425781 12.554688 27.46875 12.664062 27.546875 12.753906 C 27.628906 12.847656 27.726562 12.902344 27.847656 12.917969 L 27.847656 28.332031 C 27.730469 28.347656 27.632812 28.402344 27.554688 28.488281 C 27.472656 28.578125 27.433594 28.679688 27.425781 28.796875 L 27.257812 32.804688 C 27.25 32.945312 27.296875 33.066406 27.394531 33.167969 C 27.492188 33.269531 27.609375 33.316406 27.75 33.316406 L 30.617188 33.316406 C 30.757812 33.316406 30.875 33.269531 30.972656 33.167969 C 31.070312 33.066406 31.117188 32.945312 31.109375 32.804688 L 30.941406 28.796875 C 30.9375 28.679688 30.894531 28.578125 30.816406 28.488281 C 30.734375 28.402344 30.636719 28.351562 30.519531 28.332031 L 30.519531 12.917969 C 30.640625 12.902344 30.742188 12.847656 30.820312 12.753906 C 30.902344 12.664062 30.941406 12.554688 30.941406 12.433594 L 30.941406 8.679688 L 33.007812 8.386719 C 33.128906 8.371094 33.230469 8.3125 33.308594 8.222656 C 33.390625 8.128906 33.429688 8.023438 33.429688 7.898438 L 33.429688 5.824219 C 33.429688 5.652344 33.359375 5.519531 33.21875 5.417969 Z M 9.9375 0.96875 L 14.753906 0.96875 L 14.753906 2.054688 C 13.101562 2.742188 11.933594 3.757812 11.398438 4.960938 L 9.9375 4.960938 Z M 2.277344 32.335938 C 2.121094 32.335938 1.96875 32.304688 1.820312 32.242188 C 1.675781 32.183594 1.546875 32.097656 1.433594 31.984375 C 1.320312 31.871094 1.234375 31.742188 1.175781 31.597656 C 1.113281 31.449219 1.082031 31.296875 1.082031 31.140625 L 1.082031 25.503906 C 1.082031 25.34375 1.113281 25.191406 1.175781 25.046875 C 1.234375 24.898438 1.320312 24.769531 1.433594 24.65625 C 1.546875 24.546875 1.675781 24.460938 1.820312 24.398438 C 1.96875 24.339844 2.121094 24.308594 2.277344 24.308594 C 2.4375 24.308594 2.589844 24.339844 2.734375 24.398438 C 2.882812 24.460938 3.011719 24.546875 3.125 24.65625 C 3.234375 24.769531 3.320312 24.898438 3.382812 25.046875 C 3.445312 25.191406 3.472656 25.34375 3.472656 25.503906 L 3.472656 31.140625 C 3.472656 31.296875 3.441406 31.449219 3.382812 31.597656 C 3.320312 31.742188 3.234375 31.871094 3.125 31.984375 C 3.011719 32.097656 2.882812 32.183594 2.734375 32.242188 C 2.589844 32.304688 2.4375 32.335938 2.277344 32.335938 Z M 22.410156 24.308594 C 22.570312 24.308594 22.722656 24.339844 22.867188 24.398438 C 23.015625 24.460938 23.144531 24.546875 23.257812 24.65625 C 23.367188 24.769531 23.453125 24.898438 23.515625 25.046875 C 23.578125 25.191406 23.605469 25.34375 23.605469 25.503906 L 23.605469 31.140625 C 23.605469 31.296875 23.578125 31.449219 23.515625 31.597656 C 23.457031 31.742188 23.367188 31.871094 23.257812 31.984375 C 23.144531 32.097656 23.015625 32.183594 22.867188 32.242188 C 22.722656 32.304688 22.570312 32.335938 22.410156 32.335938 C 22.253906 32.335938 22.101562 32.304688 21.953125 32.242188 C 21.808594 32.183594 21.679688 32.097656 21.566406 31.984375 C 21.453125 31.871094 21.367188 31.742188 21.308594 31.597656 C 21.246094 31.449219 21.214844 31.296875 21.214844 31.140625 L 21.214844 25.503906 C 21.214844 25.34375 21.246094 25.191406 21.308594 25.046875 C 21.367188 24.898438 21.453125 24.769531 21.566406 24.65625 C 21.679688 24.546875 21.808594 24.460938 21.953125 24.398438 C 22.101562 24.339844 22.253906 24.308594 22.410156 24.308594 Z M 19.40625 8.683594 L 20.253906 25.21875 C 20.238281 25.3125 20.234375 25.40625 20.230469 25.503906 L 20.230469 31.140625 C 20.234375 31.371094 20.269531 31.597656 20.339844 31.816406 C 20.105469 32.160156 19.777344 32.332031 19.359375 32.335938 L 5.332031 32.335938 C 4.914062 32.332031 4.585938 32.160156 4.347656 31.816406 C 4.421875 31.597656 4.457031 31.371094 4.457031 31.140625 L 4.457031 25.503906 C 4.457031 25.40625 4.449219 25.3125 4.4375 25.214844 L 5.285156 8.683594 C 5.304688 8.3125 5.390625 7.960938 5.542969 7.625 C 5.699219 7.289062 5.910156 6.992188 6.175781 6.738281 C 6.445312 6.484375 6.75 6.289062 7.09375 6.152344 C 7.4375 6.015625 7.792969 5.945312 8.164062 5.945312 L 16.527344 5.945312 C 16.894531 5.945312 17.253906 6.015625 17.59375 6.152344 C 17.9375 6.289062 18.246094 6.484375 18.511719 6.738281 C 18.78125 6.996094 18.992188 7.289062 19.148438 7.625 C 19.300781 7.960938 19.386719 8.3125 19.40625 8.683594 Z M 12.511719 4.960938 C 13.082031 4.136719 13.828125 3.527344 14.753906 3.132812 L 14.753906 4.960938 Z M 28.832031 28.324219 L 28.832031 12.925781 L 29.535156 12.925781 L 29.535156 28.324219 Z M 29.957031 8.25 L 29.957031 11.941406 L 28.410156 11.941406 L 28.410156 7.265625 L 29.957031 7.265625 Z M 28.265625 32.332031 L 28.390625 29.3125 L 29.976562 29.3125 L 30.105469 32.332031 Z M 32.445312 7.472656 L 30.941406 7.683594 L 30.941406 7.113281 L 32.445312 6.539062 Z M 32.445312 7.472656 " fill-opacity="1" fill-rule="nonzero"/></g></svg>