<svg xmlns="http://www.w3.org/2000/svg" xmlns:xlink="http://www.w3.org/1999/xlink" width="45" zoomAndPan="magnify" viewBox="0 0 33.75 33.749998" height="45" preserveAspectRatio="xMidYMid meet" version="1.0"><defs><clipPath id="4ed6ea3a90"><path d="M 0 0 L 33.5 0 L 33.5 33.5 L 0 33.5 Z M 0 0 " clip-rule="nonzero"/></clipPath></defs><g clip-path="url(#4ed6ea3a90)"><path fill="#5b99cc" d="M 16.441406 17.746094 Z M 31.828125 26.707031 C 31.644531 26.726562 31.503906 26.875 31.488281 27.050781 C 31.382812 28.113281 30.800781 29.367188 29.816406 29.679688 C 29.460938 29.792969 29.464844 30.296875 29.816406 30.40625 C 30.808594 30.722656 31.375 31.96875 31.488281 33.039062 C 31.539062 33.492188 32.203125 33.492188 32.25 33.035156 C 32.359375 31.972656 32.9375 30.722656 33.921875 30.410156 C 34.242188 30.308594 34.332031 29.816406 33.894531 29.667969 C 32.910156 29.335938 32.363281 28.097656 32.25 27.046875 C 32.226562 26.835938 32.039062 26.683594 31.828125 26.707031 Z M 24.867188 5.097656 C 25.5 5.296875 26.066406 5.777344 26.503906 6.449219 C 26.957031 7.136719 27.269531 8.019531 27.375 9.003906 C 27.425781 9.457031 28.089844 9.457031 28.136719 9 C 28.296875 7.410156 29.164062 5.566406 30.644531 5.097656 C 31 4.984375 31 4.480469 30.644531 4.367188 C 29.15625 3.894531 28.308594 2.0625 28.136719 0.460938 C 28.089844 0.0078125 27.421875 0.0078125 27.375 0.46875 C 27.214844 2.054688 26.347656 3.898438 24.867188 4.367188 C 24.511719 4.480469 24.515625 4.984375 24.867188 5.097656 Z M 18.652344 10.238281 C 18.769531 9.160156 19.339844 7.910156 20.335938 7.59375 C 20.691406 7.480469 20.691406 6.976562 20.335938 6.863281 C 19.335938 6.546875 18.769531 5.292969 18.652344 4.214844 C 18.605469 3.761719 17.9375 3.761719 17.890625 4.21875 C 17.78125 5.289062 17.199219 6.550781 16.207031 6.863281 C 15.851562 6.976562 15.855469 7.480469 16.207031 7.59375 C 17.207031 7.910156 17.777344 9.164062 17.890625 10.242188 C 17.941406 10.699219 18.609375 10.691406 18.652344 10.238281 Z M 20.46875 14.851562 C 20.183594 14.894531 19.917969 14.699219 19.871094 14.414062 C 19.578125 12.511719 21.042969 10.792969 22.972656 10.792969 C 23.773438 10.792969 24.578125 11.101562 25.1875 11.710938 L 25.1875 11.714844 L 25.21875 11.746094 C 26.765625 10.65625 28.9375 11.515625 29.316406 13.382812 C 29.324219 13.417969 29.359375 13.441406 29.394531 13.4375 C 31.121094 13.148438 32.769531 14.328125 33.019531 16.085938 C 33.113281 16.75 32.992188 17.441406 32.660156 18.042969 C 32.523438 18.296875 32.203125 18.386719 31.953125 18.25 C 31.699219 18.109375 31.605469 17.792969 31.746094 17.539062 C 32.191406 16.730469 32.054688 15.714844 31.390625 15.050781 C 30.765625 14.425781 29.839844 14.265625 29.046875 14.625 C 28.671875 14.792969 28.265625 14.484375 28.3125 14.089844 C 28.421875 13.132812 27.679688 12.316406 26.734375 12.316406 C 26.285156 12.316406 25.871094 12.496094 25.546875 12.847656 C 25.308594 13.101562 24.910156 13.070312 24.71875 12.78125 L 24.449219 12.453125 C 23.632812 11.636719 22.308594 11.636719 21.492188 12.453125 C 21.011719 12.933594 20.800781 13.601562 20.902344 14.253906 C 20.945312 14.539062 20.753906 14.804688 20.46875 14.851562 Z M 22.929688 18.324219 L 33.425781 21.503906 C 33.703125 21.585938 33.996094 21.429688 34.078125 21.152344 C 34.164062 20.878906 34.003906 20.585938 33.730469 20.503906 L 23.234375 17.320312 C 22.957031 17.238281 22.664062 17.394531 22.582031 17.671875 C 22.496094 17.949219 22.652344 18.242188 22.929688 18.324219 Z M 22.480469 20.191406 C 22.214844 20.070312 22.101562 19.761719 22.222656 19.5 C 22.339844 19.238281 22.648438 19.121094 22.910156 19.242188 L 32.410156 23.59375 C 32.671875 23.714844 32.785156 24.023438 32.667969 24.285156 C 32.546875 24.546875 32.238281 24.660156 31.976562 24.542969 Z M 19.84375 20.949219 C 20.074219 20.777344 20.402344 20.828125 20.570312 21.058594 C 20.742188 21.292969 20.691406 21.621094 20.460938 21.789062 C 19.671875 22.363281 19.578125 23.507812 20.273438 24.199219 C 20.601562 24.527344 21.074219 24.707031 21.558594 24.660156 C 21.671875 24.648438 21.757812 24.617188 21.855469 24.625 C 22.144531 24.640625 22.363281 24.886719 22.347656 25.175781 C 22.308594 25.84375 22.847656 26.425781 23.53125 26.425781 C 23.886719 26.425781 24.242188 26.261719 24.453125 25.988281 C 24.707031 25.660156 25.214844 25.730469 25.359375 26.117188 C 25.730469 27.109375 26.960938 27.464844 27.804688 26.832031 C 28.078125 26.628906 28.28125 26.335938 28.378906 26.003906 C 28.460938 25.726562 28.75 25.566406 29.027344 25.644531 C 29.300781 25.726562 29.460938 26.015625 29.382812 26.292969 C 28.78125 28.363281 26.078125 28.867188 24.769531 27.171875 C 24.746094 27.144531 24.707031 27.136719 24.675781 27.15625 C 23.390625 27.929688 21.710938 27.226562 21.363281 25.765625 C 21.355469 25.734375 21.328125 25.710938 21.296875 25.710938 C 19.886719 25.660156 18.761719 24.5 18.761719 23.078125 C 18.761719 22.230469 19.164062 21.441406 19.84375 20.949219 Z M 16.914062 21.042969 C 17.175781 20.917969 17.488281 21.027344 17.613281 21.285156 C 17.738281 21.546875 17.628906 21.859375 17.367188 21.984375 C 16.828125 22.246094 16.488281 22.84375 16.480469 23.453125 C 16.472656 24.3125 16.847656 24.738281 17.597656 24.96875 C 17.953125 25.078125 18.089844 25.523438 17.839844 25.8125 C 17.082031 26.6875 17.847656 28.035156 18.988281 27.839844 L 18.988281 27.84375 C 19.421875 27.769531 19.753906 28.242188 19.523438 28.625 C 19.152344 29.246094 19.253906 30.050781 19.765625 30.5625 C 20.507812 31.304688 21.726562 31.117188 22.230469 30.296875 C 22.5 29.847656 23.117188 29.992188 23.203125 30.449219 C 23.347656 31.191406 23.996094 31.734375 24.765625 31.734375 C 25.644531 31.734375 26.355469 31.019531 26.355469 30.144531 C 26.355469 29.855469 26.589844 29.621094 26.878906 29.621094 C 27.167969 29.621094 27.402344 29.855469 27.402344 30.144531 C 27.402344 31.597656 26.222656 32.78125 24.765625 32.78125 C 23.859375 32.78125 23.035156 32.3125 22.554688 31.578125 C 22.53125 31.542969 22.488281 31.535156 22.453125 31.558594 C 21.410156 32.332031 19.953125 32.230469 19.027344 31.304688 C 18.414062 30.691406 18.128906 29.804688 18.304688 28.925781 C 18.3125 28.890625 18.289062 28.851562 18.253906 28.84375 C 16.90625 28.53125 16.132812 27.078125 16.660156 25.773438 C 16.671875 25.738281 16.660156 25.703125 16.628906 25.6875 C 15.835938 25.234375 15.429688 24.484375 15.4375 23.445312 C 15.449219 22.429688 16.015625 21.476562 16.914062 21.042969 Z M 6.613281 16.621094 L 3.007812 15.089844 C 2.976562 15.074219 2.9375 15.085938 2.917969 15.117188 C 1.148438 18.292969 2.0625 21.601562 1.976562 25.09375 L 0.367188 31.621094 C 0.00390625 33.105469 1.6875 33.417969 2.433594 32.421875 C 2.832031 31.894531 4.875 26.390625 5.273438 25.296875 C 5.273438 25.292969 5.273438 25.292969 5.273438 25.292969 L 6.558594 20.996094 C 6.578125 20.9375 6.660156 20.929688 6.6875 20.984375 L 9.078125 25.644531 C 9.109375 25.699219 9.171875 31.957031 9.195312 32.027344 C 9.726562 33.484375 11.382812 33.082031 11.5625 30.605469 L 11.972656 24.851562 C 11.972656 24.839844 11.96875 24.828125 11.964844 24.816406 L 9.386719 19.558594 C 9.113281 19 9.085938 18.441406 9.085938 17.824219 L 9.085938 16.148438 C 9.085938 16.085938 9.007812 16.054688 8.964844 16.101562 C 8.386719 16.734375 7.441406 16.972656 6.613281 16.621094 Z M 4.886719 3.8125 C 4.886719 4.917969 5.667969 5.835938 6.707031 6.054688 C 8.113281 6.347656 9.46875 5.285156 9.46875 3.8125 C 9.46875 2.546875 8.445312 1.523438 7.179688 1.523438 C 5.914062 1.523438 4.886719 2.546875 4.886719 3.8125 Z M 4.1875 6.746094 C 3.351562 6.90625 2.570312 7.242188 2.050781 7.910156 C 1.355469 8.800781 0.242188 11.238281 0.609375 12.261719 C 0.8125 12.832031 1.203125 13.246094 1.761719 13.484375 L 7 15.710938 C 7.550781 15.945312 8.195312 15.683594 8.425781 15.132812 C 8.5625 14.820312 8.472656 14.691406 8.542969 14.640625 C 8.5625 14.628906 8.585938 14.625 8.605469 14.632812 L 12.75 16.074219 C 13.03125 16.171875 13.308594 16.054688 13.417969 15.792969 C 13.453125 15.714844 13.480469 15.601562 13.5625 15.636719 L 16.695312 16.96875 C 16.730469 16.984375 16.746094 17.023438 16.734375 17.058594 L 16.441406 17.746094 C 16.316406 18.042969 16.488281 18.386719 16.808594 18.457031 L 20.546875 19.300781 C 20.808594 19.359375 21.058594 19.246094 21.160156 19 L 21.804688 17.484375 C 21.90625 17.246094 21.816406 16.964844 21.589844 16.832031 L 18.226562 14.867188 C 17.960938 14.757812 17.660156 14.878906 17.546875 15.144531 L 17.195312 15.96875 C 17.179688 16.003906 17.140625 16.023438 17.105469 16.007812 L 13.96875 14.675781 C 13.933594 14.660156 13.917969 14.617188 13.933594 14.582031 L 14.070312 14.261719 C 14.152344 14.046875 14.085938 13.8125 13.917969 13.671875 C 13.898438 13.65625 13.886719 13.632812 13.890625 13.605469 C 13.945312 13.269531 13.890625 12.8125 13.621094 12.460938 C 13.101562 11.78125 11.800781 11.445312 10.324219 10.8125 C 8.511719 10.035156 9.789062 8.144531 7.851562 7.101562 C 7.851562 7.101562 7.847656 7.101562 7.847656 7.101562 C 6.601562 6.480469 5.554688 6.484375 4.1875 6.746094 Z M 4.53125 11.082031 L 12.824219 14.335938 C 12.863281 14.351562 12.878906 14.394531 12.863281 14.429688 L 12.675781 14.875 C 12.660156 14.90625 12.621094 14.925781 12.585938 14.910156 L 4.171875 11.675781 C 3.96875 11.597656 4.117188 11.359375 4.171875 11.230469 C 4.230469 11.09375 4.390625 11.023438 4.53125 11.082031 Z M 4.53125 11.082031 " fill-opacity="1" fill-rule="evenodd"/></g></svg>