<svg xmlns="http://www.w3.org/2000/svg" xmlns:xlink="http://www.w3.org/1999/xlink" width="45" zoomAndPan="magnify" viewBox="0 0 33.75 33.749998" height="45" preserveAspectRatio="xMidYMid meet" version="1.0"><defs><clipPath id="0adef0d10c"><path d="M 0 0 L 33.5 0 L 33.5 33.5 L 0 33.5 Z M 0 0 " clip-rule="nonzero"/></clipPath></defs><g clip-path="url(#0adef0d10c)"><path fill="#5b99cc" d="M 33.476562 18.875 C 33.144531 15.792969 31.023438 13.3125 28.207031 12.417969 C 29.296875 11.671875 30.011719 10.421875 30.011719 9.007812 C 30.011719 6.730469 28.15625 4.878906 25.882812 4.878906 C 23.605469 4.878906 21.753906 6.730469 21.753906 9.007812 C 21.753906 9.367188 21.800781 9.714844 21.886719 10.050781 C 21.089844 9.480469 20.207031 9.050781 19.261719 8.773438 C 20.605469 7.933594 21.5 6.445312 21.5 4.746094 C 21.5 2.128906 19.367188 0 16.75 0 C 14.132812 0 12.003906 2.128906 12.003906 4.746094 C 12.003906 6.445312 12.898438 7.933594 14.238281 8.773438 C 13.296875 9.050781 12.410156 9.480469 11.617188 10.050781 C 11.703125 9.714844 11.75 9.367188 11.75 9.007812 C 11.75 6.730469 9.898438 4.878906 7.621094 4.878906 C 5.34375 4.878906 3.492188 6.730469 3.492188 9.007812 C 3.492188 10.421875 4.207031 11.671875 5.292969 12.417969 C 2.476562 13.3125 0.355469 15.792969 0.0273438 18.875 C 0.0117188 19.027344 0.0585938 19.179688 0.160156 19.292969 C 0.265625 19.40625 0.410156 19.472656 0.5625 19.472656 L 7.902344 19.46875 C 7.878906 19.867188 7.957031 20.277344 8.148438 20.652344 L 8.746094 21.832031 C 8.859375 22.058594 8.898438 22.269531 8.867188 22.523438 L 8.710938 23.832031 C 8.589844 24.851562 9.140625 25.808594 10.082031 26.210938 L 10.886719 26.554688 L 8.945312 30.726562 C 8.835938 30.964844 8.867188 31.238281 9.023438 31.445312 C 9.183594 31.652344 9.441406 31.75 9.695312 31.707031 L 11.691406 31.359375 L 12.710938 33.109375 C 12.835938 33.324219 13.0625 33.457031 13.308594 33.457031 C 13.320312 33.457031 13.332031 33.453125 13.34375 33.453125 C 13.601562 33.441406 13.832031 33.289062 13.941406 33.054688 L 15.820312 29.019531 L 16.398438 28.84375 C 16.644531 28.769531 16.859375 28.769531 17.101562 28.84375 L 17.683594 29.019531 L 19.558594 33.054688 C 19.671875 33.289062 19.898438 33.441406 20.160156 33.453125 C 20.167969 33.453125 20.179688 33.457031 20.191406 33.457031 C 20.4375 33.457031 20.667969 33.324219 20.792969 33.109375 L 21.808594 31.359375 L 23.804688 31.707031 C 24.0625 31.75 24.320312 31.652344 24.476562 31.445312 C 24.636719 31.238281 24.664062 30.964844 24.554688 30.726562 L 22.613281 26.554688 L 23.417969 26.210938 C 24.363281 25.808594 24.914062 24.851562 24.792969 23.832031 L 24.636719 22.523438 C 24.605469 22.269531 24.644531 22.058594 24.757812 21.832031 L 25.351562 20.652344 C 25.542969 20.277344 25.621094 19.867188 25.597656 19.46875 L 32.9375 19.46875 C 33.09375 19.46875 33.238281 19.40625 33.339844 19.292969 C 33.441406 19.179688 33.492188 19.027344 33.476562 18.875 Z M 25.882812 5.957031 C 27.5625 5.957031 28.929688 7.328125 28.929688 9.007812 C 28.929688 10.6875 27.5625 12.054688 25.882812 12.058594 C 24.199219 12.054688 22.832031 10.6875 22.832031 9.007812 C 22.832031 7.328125 24.199219 5.957031 25.882812 5.957031 Z M 13.082031 4.746094 C 13.082031 2.726562 14.726562 1.078125 16.75 1.078125 C 18.773438 1.078125 20.417969 2.726562 20.417969 4.746094 C 20.417969 6.769531 18.773438 8.414062 16.753906 8.417969 C 16.753906 8.417969 16.75 8.417969 16.75 8.417969 C 14.726562 8.414062 13.082031 6.769531 13.082031 4.746094 Z M 16.75 9.496094 C 16.75 9.496094 16.753906 9.496094 16.753906 9.496094 C 19.238281 9.496094 21.523438 10.65625 22.988281 12.625 C 22.46875 12.835938 21.972656 13.105469 21.507812 13.433594 C 21.394531 13.410156 21.277344 13.394531 21.15625 13.386719 L 19.839844 13.3125 C 19.585938 13.300781 19.382812 13.226562 19.179688 13.074219 L 18.125 12.285156 C 17.304688 11.667969 16.199219 11.667969 15.378906 12.285156 L 14.320312 13.074219 C 14.117188 13.226562 13.914062 13.300781 13.660156 13.3125 L 12.34375 13.386719 C 12.226562 13.394531 12.109375 13.410156 11.996094 13.433594 C 11.527344 13.105469 11.03125 12.835938 10.511719 12.625 C 11.980469 10.65625 14.265625 9.496094 16.75 9.496094 Z M 4.570312 9.007812 C 4.570312 7.328125 5.9375 5.957031 7.621094 5.957031 C 9.300781 5.957031 10.667969 7.328125 10.667969 9.007812 C 10.667969 10.6875 9.300781 12.058594 7.621094 12.058594 C 5.9375 12.054688 4.570312 10.6875 4.570312 9.007812 Z M 8.625 17.949219 C 8.484375 18.082031 8.359375 18.230469 8.257812 18.390625 L 1.191406 18.390625 C 1.796875 15.355469 4.464844 13.136719 7.621094 13.136719 C 8.785156 13.136719 9.902344 13.4375 10.894531 14.011719 C 10.578125 14.308594 10.347656 14.703125 10.238281 15.152344 L 9.9375 16.4375 C 9.882812 16.683594 9.773438 16.871094 9.589844 17.046875 Z M 13.273438 31.929688 L 12.4375 30.492188 C 12.324219 30.296875 12.097656 30.191406 11.875 30.230469 L 10.234375 30.515625 L 11.804688 27.140625 C 11.816406 27.15625 11.824219 27.167969 11.832031 27.183594 L 12.554688 28.285156 C 12.992188 28.957031 13.722656 29.332031 14.488281 29.324219 Z M 21.625 30.230469 C 21.402344 30.191406 21.179688 30.296875 21.066406 30.492188 L 20.230469 31.929688 L 19.015625 29.324219 C 19.023438 29.324219 19.03125 29.324219 19.039062 29.324219 C 19.792969 29.324219 20.511719 28.949219 20.945312 28.285156 L 21.667969 27.183594 C 21.675781 27.167969 21.6875 27.15625 21.695312 27.140625 L 23.265625 30.515625 Z M 24.390625 20.167969 L 23.792969 21.34375 C 23.582031 21.761719 23.507812 22.1875 23.5625 22.652344 L 23.71875 23.960938 C 23.785156 24.507812 23.5 25.003906 22.992188 25.21875 L 21.78125 25.738281 C 21.351562 25.921875 21.019531 26.199219 20.765625 26.589844 L 20.042969 27.695312 C 19.742188 28.15625 19.203125 28.351562 18.675781 28.191406 L 17.414062 27.8125 C 16.96875 27.675781 16.535156 27.675781 16.085938 27.8125 L 14.824219 28.191406 C 14.296875 28.351562 13.761719 28.15625 13.457031 27.695312 L 12.738281 26.589844 C 12.480469 26.199219 12.148438 25.921875 11.722656 25.738281 L 10.507812 25.21875 C 10 25.003906 9.714844 24.507812 9.78125 23.960938 L 9.9375 22.652344 C 9.992188 22.1875 9.917969 21.761719 9.707031 21.34375 L 9.113281 20.167969 C 8.863281 19.675781 8.960938 19.113281 9.363281 18.734375 L 10.328125 17.832031 C 10.667969 17.511719 10.882812 17.136719 10.988281 16.683594 L 11.289062 15.398438 C 11.417969 14.863281 11.855469 14.496094 12.40625 14.464844 L 13.722656 14.390625 C 14.1875 14.367188 14.59375 14.21875 14.96875 13.9375 L 16.023438 13.148438 C 16.246094 12.980469 16.496094 12.898438 16.75 12.898438 C 17.003906 12.898438 17.257812 12.980469 17.476562 13.148438 L 18.535156 13.9375 C 18.90625 14.21875 19.316406 14.367188 19.78125 14.390625 L 21.097656 14.464844 C 21.648438 14.496094 22.085938 14.863281 22.210938 15.398438 L 22.511719 16.683594 C 22.617188 17.136719 22.835938 17.511719 23.175781 17.832031 L 24.136719 18.734375 C 24.539062 19.113281 24.636719 19.675781 24.390625 20.167969 Z M 25.242188 18.390625 C 25.140625 18.230469 25.019531 18.082031 24.875 17.949219 L 23.914062 17.046875 C 23.730469 16.871094 23.621094 16.683594 23.5625 16.4375 L 23.261719 15.152344 C 23.15625 14.703125 22.925781 14.308594 22.609375 14.011719 C 23.597656 13.4375 24.714844 13.136719 25.878906 13.136719 C 25.882812 13.136719 25.882812 13.136719 25.882812 13.136719 C 29.039062 13.136719 31.703125 15.355469 32.3125 18.390625 Z M 16.75 15.425781 C 13.914062 15.425781 11.601562 17.734375 11.601562 20.574219 C 11.601562 23.414062 13.914062 25.722656 16.75 25.722656 C 19.589844 25.722656 21.898438 23.414062 21.898438 20.574219 C 21.898438 17.734375 19.589844 15.425781 16.75 15.425781 Z M 16.75 24.644531 C 14.507812 24.644531 12.683594 22.816406 12.683594 20.574219 C 12.683594 18.328125 14.507812 16.503906 16.75 16.503906 C 18.996094 16.503906 20.820312 18.328125 20.820312 20.574219 C 20.820312 22.816406 18.996094 24.644531 16.75 24.644531 Z M 19.144531 19.148438 L 17.957031 19.152344 L 17.59375 18.023438 C 17.476562 17.65625 17.136719 17.410156 16.75 17.410156 C 16.367188 17.410156 16.027344 17.65625 15.910156 18.023438 L 15.542969 19.152344 L 14.359375 19.148438 C 14.355469 19.148438 14.355469 19.148438 14.355469 19.148438 C 13.972656 19.148438 13.632812 19.394531 13.515625 19.761719 C 13.394531 20.128906 13.523438 20.527344 13.835938 20.753906 L 14.796875 21.449219 L 14.429688 22.574219 C 14.308594 22.941406 14.4375 23.339844 14.75 23.566406 C 14.90625 23.679688 15.089844 23.738281 15.269531 23.738281 C 15.453125 23.738281 15.636719 23.679688 15.792969 23.566406 L 16.75 22.867188 L 17.710938 23.566406 C 18.019531 23.792969 18.441406 23.792969 18.75 23.566406 C 19.0625 23.339844 19.191406 22.941406 19.074219 22.574219 L 18.703125 21.449219 L 19.664062 20.753906 C 19.976562 20.527344 20.105469 20.128906 19.988281 19.761719 C 19.867188 19.394531 19.53125 19.148438 19.144531 19.148438 Z M 17.957031 20.65625 C 17.644531 20.882812 17.515625 21.28125 17.632812 21.648438 L 17.859375 22.339844 L 17.273438 21.914062 C 17.117188 21.796875 16.933594 21.742188 16.75 21.742188 C 16.566406 21.742188 16.386719 21.796875 16.230469 21.914062 L 15.640625 22.339844 L 15.867188 21.648438 C 15.988281 21.28125 15.859375 20.882812 15.546875 20.65625 L 14.957031 20.230469 L 15.683594 20.230469 C 16.070312 20.230469 16.410156 19.984375 16.527344 19.617188 L 16.75 18.925781 L 16.972656 19.617188 C 17.09375 19.984375 17.429688 20.230469 17.816406 20.230469 C 17.816406 20.230469 17.816406 20.230469 17.820312 20.230469 L 18.546875 20.230469 Z M 17.957031 20.65625 " fill-opacity="1" fill-rule="nonzero"/></g></svg>