<svg xmlns="http://www.w3.org/2000/svg" xmlns:xlink="http://www.w3.org/1999/xlink" width="45" zoomAndPan="magnify" viewBox="0 0 33.75 33.749998" height="45" preserveAspectRatio="xMidYMid meet" version="1.0"><defs><clipPath id="b9dcb29492"><path d="M 0 0 L 33.5 0 L 33.5 33.5 L 0 33.5 Z M 0 0 " clip-rule="nonzero"/></clipPath></defs><path fill="#5b99cc" d="M 16.707031 26.746094 C 11.269531 26.746094 6.832031 22.308594 6.832031 16.867188 C 6.832031 11.429688 11.269531 6.972656 16.707031 6.972656 C 22.167969 6.972656 26.605469 11.429688 26.605469 16.867188 C 26.605469 22.347656 22.167969 26.746094 16.707031 26.746094 Z M 16.707031 7.933594 C 11.78125 7.933594 7.773438 11.941406 7.773438 16.867188 C 7.773438 21.796875 11.78125 25.800781 16.707031 25.800781 C 21.636719 25.800781 25.640625 21.796875 25.640625 16.867188 C 25.640625 11.941406 21.636719 7.933594 16.707031 7.933594 Z M 16.707031 7.933594 " fill-opacity="1" fill-rule="evenodd"/><path fill="#5b99cc" d="M 15 22.210938 C 14.921875 22.210938 14.824219 22.167969 14.746094 22.148438 C 14.726562 22.128906 14.707031 22.089844 14.648438 22.070312 L 12.898438 20.34375 L 10.484375 17.929688 C 9.816406 17.242188 9.816406 16.160156 10.484375 15.515625 C 11.152344 14.847656 12.25 14.847656 12.898438 15.515625 L 15 17.59375 L 20.515625 12.019531 C 20.851562 11.683594 21.261719 11.527344 21.714844 11.527344 C 22.1875 11.527344 22.597656 11.683594 22.914062 12.019531 C 23.246094 12.351562 23.441406 12.785156 23.441406 13.238281 C 23.441406 13.707031 23.246094 14.121094 22.914062 14.433594 L 15.3125 22.070312 C 15.292969 22.089844 15.234375 22.128906 15.214844 22.148438 C 15.15625 22.167969 15.078125 22.210938 15.019531 22.210938 C 15.019531 22.210938 15.019531 22.210938 15 22.210938 Z M 11.703125 15.964844 C 11.503906 15.964844 11.289062 16.042969 11.152344 16.179688 C 10.878906 16.457031 10.878906 16.945312 11.191406 17.242188 L 15 21.03125 L 22.265625 13.765625 C 22.402344 13.628906 22.480469 13.433594 22.480469 13.238281 C 22.480469 13.019531 22.402344 12.84375 22.265625 12.707031 C 21.988281 12.429688 21.5 12.429688 21.203125 12.707031 L 15.3125 18.617188 C 15.136719 18.792969 14.824219 18.792969 14.648438 18.617188 C 14.609375 18.578125 14.589844 18.558594 14.566406 18.519531 L 12.25 16.179688 C 12.113281 16.023438 11.898438 15.964844 11.703125 15.964844 Z M 11.703125 15.964844 " fill-opacity="1" fill-rule="evenodd"/><g clip-path="url(#b9dcb29492)"><path fill="#5b99cc" d="M 16.785156 33.5 C 15.902344 33.5 15.195312 32.832031 14.46875 32.144531 C 13.980469 31.671875 13.507812 31.183594 13.015625 31.042969 C 12.546875 30.945312 11.859375 31.101562 11.210938 31.28125 C 10.230469 31.515625 9.226562 31.75 8.382812 31.300781 C 7.539062 30.808594 7.246094 29.808594 6.96875 28.824219 C 6.773438 28.15625 6.578125 27.511719 6.261719 27.175781 C 5.929688 26.863281 5.242188 26.644531 4.59375 26.449219 C 3.671875 26.175781 2.691406 25.898438 2.257812 25.113281 C 1.824219 24.328125 2.0625 23.367188 2.316406 22.425781 C 2.472656 21.777344 2.671875 21.109375 2.53125 20.65625 C 2.414062 20.207031 1.925781 19.734375 1.472656 19.246094 C 0.785156 18.558594 0 17.773438 0.0976562 16.75 C 0 15.769531 0.785156 14.984375 1.472656 14.277344 C 1.925781 13.824219 2.414062 13.335938 2.550781 12.863281 C 2.671875 12.429688 2.492188 11.746094 2.335938 11.097656 C 2.082031 10.171875 1.824219 9.191406 2.277344 8.425781 C 2.710938 7.640625 3.691406 7.367188 4.613281 7.089844 C 5.28125 6.894531 5.949219 6.71875 6.28125 6.363281 C 6.617188 6.03125 6.792969 5.34375 6.988281 4.714844 C 7.265625 3.734375 7.558594 2.730469 8.402344 2.242188 C 9.246094 1.75 10.269531 2.007812 11.230469 2.242188 C 11.898438 2.398438 12.566406 2.574219 13.035156 2.457031 C 13.507812 2.359375 14.019531 1.867188 14.507812 1.378906 C 15.214844 0.691406 15.921875 0.00390625 16.828125 0.00390625 C 17.730469 0.00390625 18.4375 0.710938 19.105469 1.398438 C 19.59375 1.867188 20.085938 2.378906 20.515625 2.496094 C 20.988281 2.59375 21.636719 2.4375 22.285156 2.28125 C 23.226562 2.027344 24.207031 1.75 24.992188 2.222656 C 25.777344 2.652344 26.054688 3.597656 26.328125 4.539062 C 26.503906 5.1875 26.703125 5.875 27.054688 6.1875 C 27.410156 6.542969 28.078125 6.738281 28.722656 6.933594 C 29.707031 7.207031 30.707031 7.503906 31.179688 8.347656 C 31.628906 9.152344 31.394531 10.191406 31.140625 11.175781 C 30.980469 11.824219 30.824219 12.511719 30.921875 12.980469 C 31.0625 13.433594 31.550781 13.941406 32.023438 14.433594 C 32.691406 15.160156 33.398438 15.867188 33.378906 16.75 C 33.398438 17.652344 32.691406 18.398438 32.023438 19.105469 C 31.550781 19.597656 31.0625 20.109375 30.921875 20.558594 C 30.824219 21.03125 30.980469 21.71875 31.140625 22.367188 C 31.394531 23.347656 31.628906 24.347656 31.179688 25.195312 C 30.6875 26.039062 29.667969 26.351562 28.683594 26.605469 C 28.035156 26.804688 27.390625 27 27.054688 27.3125 C 26.703125 27.667969 26.503906 28.355469 26.328125 29.003906 C 26.054688 29.945312 25.777344 30.886719 24.992188 31.359375 C 24.207031 31.789062 23.246094 31.535156 22.285156 31.300781 C 21.636719 31.140625 20.988281 30.945312 20.515625 31.082031 C 20.066406 31.183594 19.574219 31.671875 19.105469 32.164062 C 18.398438 32.792969 17.691406 33.5 16.785156 33.5 Z M 12.664062 30.082031 C 12.878906 30.082031 13.054688 30.101562 13.253906 30.160156 C 13.960938 30.335938 14.566406 30.90625 15.136719 31.457031 C 15.707031 32.007812 16.277344 32.574219 16.785156 32.554688 C 17.316406 32.554688 17.886719 31.988281 18.4375 31.4375 C 19.003906 30.867188 19.574219 30.296875 20.28125 30.101562 C 20.988281 29.90625 21.773438 30.121094 22.539062 30.316406 C 23.265625 30.515625 24.070312 30.730469 24.503906 30.476562 C 24.933594 30.238281 25.152344 29.453125 25.367188 28.707031 C 25.582031 27.921875 25.839844 27.136719 26.347656 26.605469 C 26.859375 26.117188 27.625 25.898438 28.390625 25.683594 C 29.175781 25.46875 30.019531 25.234375 30.296875 24.703125 C 30.570312 24.210938 30.375 23.367188 30.195312 22.582031 C 30 21.816406 29.804688 21.011719 29.980469 20.324219 C 30.15625 19.617188 30.726562 19.007812 31.316406 18.4375 C 31.847656 17.871094 32.414062 17.300781 32.394531 16.789062 C 32.394531 16.789062 32.394531 16.75 32.394531 16.75 C 32.414062 16.242188 31.847656 15.671875 31.316406 15.101562 C 30.765625 14.53125 30.15625 13.921875 29.980469 13.21875 C 29.785156 12.511719 30 11.726562 30.195312 10.9375 C 30.375 10.132812 30.589844 9.289062 30.296875 8.800781 C 30 8.289062 29.175781 8.074219 28.390625 7.816406 C 27.625 7.601562 26.839844 7.367188 26.328125 6.875 C 25.800781 6.363281 25.5625 5.558594 25.347656 4.773438 C 25.132812 4.046875 24.914062 3.28125 24.464844 3.027344 C 24.011719 2.792969 23.246094 2.988281 22.480469 3.164062 C 21.714844 3.359375 20.929688 3.578125 20.222656 3.378906 C 19.515625 3.203125 18.945312 2.632812 18.378906 2.046875 C 17.828125 1.515625 17.257812 0.945312 16.765625 0.945312 C 16.257812 0.945312 15.667969 1.476562 15.136719 2.027344 C 14.566406 2.59375 13.960938 3.164062 13.234375 3.339844 C 12.546875 3.519531 11.722656 3.300781 10.976562 3.144531 C 10.171875 2.949219 9.324219 2.730469 8.835938 3.027344 C 8.324219 3.339844 8.089844 4.144531 7.855469 4.929688 C 7.636719 5.695312 7.421875 6.460938 6.929688 6.972656 C 6.421875 7.503906 5.636719 7.738281 4.847656 7.953125 C 4.082031 8.171875 3.316406 8.40625 3.042969 8.859375 C 2.808594 9.289062 2.984375 10.09375 3.179688 10.820312 C 3.378906 11.585938 3.59375 12.371094 3.398438 13.078125 C 3.199219 13.785156 2.632812 14.355469 2.0625 14.90625 C 1.472656 15.515625 0.882812 16.101562 0.980469 16.652344 C 0.980469 16.710938 0.980469 16.75 0.980469 16.789062 C 0.882812 17.359375 1.472656 17.929688 2.082031 18.558594 C 2.632812 19.125 3.199219 19.695312 3.398438 20.382812 C 3.59375 21.089844 3.378906 21.875 3.179688 22.640625 C 2.984375 23.367188 2.769531 24.171875 3.023438 24.605469 C 3.257812 25.054688 4.042969 25.273438 4.808594 25.507812 C 5.574219 25.722656 6.363281 25.960938 6.890625 26.46875 C 7.363281 27 7.617188 27.765625 7.832031 28.511719 C 8.050781 29.316406 8.304688 30.160156 8.816406 30.4375 C 9.304688 30.691406 10.152344 30.515625 10.9375 30.316406 C 11.5625 30.199219 12.132812 30.082031 12.664062 30.082031 Z M 12.664062 30.082031 " fill-opacity="1" fill-rule="evenodd"/></g></svg>